<svg width="31" height="25" viewBox="0 0 31 25" fill="none" xmlns="http://www.w3.org/2000/svg">
<g clip-path="url(#clip0_1639_2867)">
<path d="M2.519 18.4826C2.519 18.4596 2.519 18.4596 2.49609 18.4365C2.519 18.4596 2.519 18.4596 2.519 18.4826Z" fill="#00BD00"/>
<path d="M2.20077 17.9756C2.20077 17.9756 2.20077 17.9525 2.20077 17.9294C2.17787 17.9525 2.17787 17.9525 2.20077 17.9756Z" fill="#00BD00"/>
<path d="M11.1797 5.04168C11.2026 5.01863 11.2255 4.97252 11.2484 4.94946C11.2255 4.97252 11.2026 4.99557 11.1797 5.04168Z" fill="#00BD00"/>
<path d="M13.5375 1.92944C13.4917 1.92944 13.4688 1.9525 13.4688 1.99861C13.4687 1.97555 13.4917 1.9525 13.5375 1.92944Z" fill="#00BD00"/>
<path d="M12.1172 3.61251C12.1172 3.58946 12.1172 3.56641 12.1401 3.56641C12.1172 3.56641 12.1172 3.58946 12.1172 3.61251Z" fill="#00BD00"/>
<path d="M13.8594 1.5835C13.8594 1.53739 13.9052 1.51434 13.9281 1.51434C13.9281 1.46823 13.9739 1.44517 14.0197 1.42212C13.9739 1.42212 13.951 1.44517 13.9281 1.51434C13.9052 1.51434 13.8823 1.53739 13.8594 1.5835Z" fill="#00BD00"/>
<path d="M6.94237 22.5403L6.91797 22.565L6.94237 22.5403Z" fill="#00BD00"/>
<path d="M23.9619 22.448H23.9375C23.9375 22.4727 23.9375 22.448 23.9619 22.448Z" fill="#00BD00"/>
<path d="M16.8594 12.0044C16.8594 11.9813 16.8594 11.9583 16.8823 11.9583C16.8823 11.9813 16.8594 11.9813 16.8594 12.0044Z" fill="#00BD00"/>
<path d="M16.6992 12.258C16.6992 12.235 16.6992 12.235 16.7221 12.2119C16.6992 12.235 16.6992 12.235 16.6992 12.258Z" fill="#00BD00"/>
<path d="M16.6094 4.32715C16.6094 4.37326 16.6323 4.39631 16.6781 4.41937C16.6552 4.39631 16.6323 4.37326 16.6094 4.32715Z" fill="#00BD00"/>
<path d="M14.0659 12.3501C14.0659 12.327 14.0659 12.327 14.043 12.304C14.0659 12.304 14.0659 12.327 14.0659 12.3501Z" fill="#00BD00"/>
<path d="M11.8221 9.65266C11.8221 9.60655 11.7763 9.5835 11.7305 9.5835C11.7763 9.5835 11.8221 9.60655 11.8221 9.65266Z" fill="#00BD00"/>
<path d="M11.7305 9.58527L11.7549 9.56055L11.7305 9.58527Z" fill="#00BD00"/>
<path d="M18.6914 3.77368C18.7143 3.79674 18.7372 3.84285 18.7601 3.8659C18.7372 3.81979 18.7143 3.79674 18.6914 3.77368Z" fill="#00BD00"/>
<path d="M19.4727 4.83423C19.4727 4.85728 19.4956 4.85728 19.4956 4.88034C19.4956 4.85728 19.4956 4.83423 19.4727 4.83423Z" fill="#00BD00"/>
<path d="M20.5263 8.31567C20.5034 8.31567 20.5034 8.31567 20.4805 8.33873C20.5034 8.31567 20.5263 8.31567 20.5263 8.31567Z" fill="#00BD00"/>
<path d="M19.7713 8.89185C19.7255 8.9149 19.7026 8.93796 19.6797 8.96101C19.7255 8.93796 19.7484 8.9149 19.7713 8.89185Z" fill="#00BD00"/>
<path d="M17.7758 10.8286C17.7299 10.8286 17.707 10.8747 17.707 10.8978C17.707 10.8747 17.7299 10.8286 17.7758 10.8286Z" fill="#00BD00"/>
<path d="M20.4336 8.3863C20.4336 8.36157 20.458 8.36157 20.458 8.36157C20.458 8.36157 20.458 8.3863 20.4336 8.3863Z" fill="#00BD00"/>
<path d="M16.9062 11.9351C16.9062 11.9351 16.9292 11.912 16.9521 11.912C16.975 11.889 16.9979 11.8429 17.0208 11.8198C16.9979 11.8429 16.975 11.8659 16.9521 11.912C16.9292 11.912 16.9062 11.9351 16.9062 11.9351Z" fill="#00BD00"/>
<path d="M26.4141 20.5345C26.4599 20.5345 26.4828 20.5114 26.5057 20.4653C26.5057 20.4884 26.4599 20.5345 26.4141 20.5345Z" fill="#00BD00"/>
<path d="M19.264 4.5346C19.2411 4.48849 19.2182 4.46544 19.1953 4.44238C19.2182 4.46544 19.2411 4.48849 19.264 4.5346Z" fill="#00BD00"/>
<path d="M12.9219 2.59808C12.9448 2.57502 12.9677 2.55197 12.9906 2.50586C12.9906 2.52891 12.9448 2.55197 12.9219 2.59808Z" fill="#00BD00"/>
<path d="M11.7734 4.09661C11.7963 4.07356 11.8193 4.02745 11.8422 4.00439C11.8193 4.0505 11.7734 4.07356 11.7734 4.09661C11.7734 4.11967 11.7734 4.09661 11.7734 4.09661Z" fill="#00BD00"/>
<path d="M30.331 6.33273C30.3081 6.30968 30.2852 6.30968 30.2852 6.28662C30.3081 6.28662 30.3081 6.30968 30.331 6.33273Z" fill="#00BD00"/>
<path d="M30.4911 7.09372C30.4682 7.07066 30.4453 7.07066 30.4453 7.04761C30.4682 7.04761 30.4911 7.07066 30.4911 7.09372Z" fill="#00BD00"/>
<path d="M30.6971 11.6124C30.6742 11.5663 30.6742 11.5202 30.6971 11.4971C30.72 10.598 30.72 9.69885 30.6971 8.79971C30.6742 8.7536 30.6513 8.68444 30.6742 8.63833C30.6742 8.61527 30.6513 8.59222 30.6513 8.56916C30.6055 8.40778 30.6055 8.22334 30.6055 8.03891C30.5825 7.9928 30.5596 7.94669 30.5825 7.92363C30.4909 7.7853 30.5138 7.62392 30.5138 7.46254L30.4909 7.43948L30.5138 7.41643C30.4451 7.30115 30.4451 7.18588 30.4451 7.04755C30.4222 7.0245 30.4222 7.00144 30.4451 6.97839C30.4451 6.95533 30.4222 6.95533 30.4222 6.95533C30.3764 6.86311 30.3535 6.74784 30.3764 6.63257C30.3535 6.60951 30.3535 6.60951 30.3764 6.58646C30.3076 6.49424 30.3076 6.40202 30.3076 6.3098C30.2847 6.28674 30.2847 6.26369 30.2847 6.24063C30.216 6.17147 30.1931 6.0562 30.216 5.96398C30.1931 5.94092 30.1931 5.91787 30.1931 5.89481C30.1244 5.82565 30.1015 5.71037 30.1244 5.61816C30.1015 5.5951 30.1015 5.5951 30.1015 5.57205C30.0327 5.41066 29.8953 5.43372 29.7578 5.43372C29.4142 5.43372 29.0477 5.43372 28.7041 5.45677C28.6583 5.45677 28.5895 5.45677 28.5437 5.45677C28.475 5.47983 28.4063 5.50288 28.3375 5.45677C28.1772 5.54899 27.9939 5.52594 27.8106 5.52594C27.7648 5.52594 27.6961 5.52594 27.6503 5.54899C27.5128 5.61816 27.3754 5.61816 27.215 5.61816C27.1692 5.61816 27.1005 5.64121 27.0547 5.64121C26.963 5.73343 26.8256 5.71037 26.711 5.71037C26.6881 5.73343 26.6652 5.73343 26.6423 5.71037C26.6194 5.71037 26.6194 5.73343 26.5965 5.73343C26.5049 5.77954 26.3903 5.80259 26.2987 5.77954C26.2758 5.80259 26.2529 5.80259 26.23 5.80259C26.1612 5.87176 26.0467 5.87176 25.9551 5.87176L25.9322 5.89481H25.8864C25.8176 5.96398 25.726 5.98703 25.6344 5.96398C25.6115 5.98703 25.5885 5.98703 25.5656 5.98703C25.4969 6.0562 25.4053 6.07925 25.2907 6.0562L25.2678 6.07925H25.2449C25.1991 6.14842 25.1075 6.14842 25.0387 6.14842C25.0158 6.17147 24.9929 6.17147 24.97 6.17147C24.9242 6.24063 24.8555 6.24063 24.7868 6.24063C24.7638 6.26369 24.7409 6.26369 24.718 6.26369C24.6722 6.33285 24.6035 6.33285 24.5348 6.33285C24.5119 6.35591 24.4889 6.35591 24.466 6.35591C24.4202 6.42507 24.3515 6.42507 24.2828 6.42507C24.2828 6.44813 24.2599 6.44813 24.237 6.44813C24.1911 6.51729 24.1224 6.51729 24.0308 6.51729C23.985 6.58646 23.9391 6.58646 23.8704 6.58646L23.8475 6.60951H23.8017C23.7559 6.67867 23.6872 6.67867 23.6184 6.67867C23.5726 6.74784 23.5268 6.74784 23.4581 6.74784C23.4581 6.77089 23.4352 6.77089 23.4123 6.77089C23.3664 6.84006 23.2977 6.86311 23.229 6.86311C23.1832 6.93228 23.1374 6.93228 23.0686 6.93228C23.0228 7.00144 22.977 7.0245 22.9083 7.00144C22.8625 7.07061 22.8166 7.09366 22.7479 7.07061C22.7021 7.13977 22.6563 7.16282 22.5876 7.16282C22.5417 7.23199 22.4959 7.25504 22.4272 7.25504C22.3814 7.32421 22.3356 7.34726 22.2668 7.34726C22.2439 7.41643 22.1752 7.43948 22.1065 7.43948C22.0836 7.50865 22.0149 7.5317 21.9461 7.5317C21.9232 7.57781 21.9003 7.60086 21.8545 7.60086H21.8316C21.7858 7.64697 21.74 7.69308 21.6712 7.69308C21.6483 7.76225 21.5796 7.7853 21.5109 7.7853C21.488 7.83141 21.4651 7.85447 21.4192 7.85447H21.3963C21.3047 7.85447 21.2589 7.87752 21.1902 7.87752C21.1672 7.94669 21.0985 7.96974 21.0298 7.96974C21.0069 8.01585 20.984 8.03891 20.9382 8.03891C20.9153 8.10807 20.8465 8.13112 20.7778 8.13112C20.7549 8.17723 20.732 8.20029 20.6862 8.20029C20.6633 8.26945 20.5945 8.29251 20.5258 8.31556C20.5029 8.36167 20.48 8.38473 20.4342 8.38473C20.4113 8.43084 20.3884 8.45389 20.3425 8.45389C20.3196 8.52305 20.2738 8.54611 20.2051 8.56916C20.1822 8.61527 20.1593 8.63833 20.1135 8.63833C20.0906 8.68444 20.0676 8.70749 20.0218 8.70749C19.9989 8.77666 19.9531 8.79971 19.8844 8.82277C19.8615 8.86888 19.8386 8.89193 19.7927 8.89193C19.7698 8.93804 19.7469 8.96109 19.7011 8.96109C19.7011 9.0072 19.6553 9.03026 19.6095 9.03026C19.5866 9.09942 19.5408 9.12248 19.472 9.14553C19.4491 9.19164 19.4262 9.2147 19.3804 9.2147C19.3575 9.26081 19.3346 9.28386 19.2888 9.28386C19.2888 9.32997 19.243 9.35303 19.1971 9.35303C19.1971 9.39914 19.1513 9.42219 19.1055 9.42219C19.1284 9.39914 19.1513 9.37608 19.1971 9.35303C19.1742 9.37608 19.1284 9.39914 19.1055 9.42219C18.739 9.79107 18.3724 10.1369 18.0288 10.5058C18.0288 10.5519 18.0059 10.5749 17.9601 10.598C17.9601 10.6441 17.9372 10.6671 17.8914 10.6902C17.8914 10.7363 17.8685 10.7594 17.8226 10.7824C17.8226 10.8285 17.7997 10.8516 17.7539 10.8746C17.731 10.9438 17.7081 10.9899 17.6394 11.013C17.6394 11.0591 17.6165 11.0821 17.5706 11.1052C17.5936 11.0821 17.6165 11.0591 17.6394 11.013C17.6165 11.036 17.5936 11.0821 17.5706 11.1052C17.5477 11.1282 17.5019 11.1513 17.5019 11.1974C17.5248 11.1744 17.5477 11.1282 17.5706 11.1052C17.5706 11.1513 17.5477 11.1744 17.5019 11.1974C17.5019 11.2435 17.479 11.2666 17.4332 11.2896C17.4103 11.3588 17.3874 11.4049 17.3187 11.428C17.3187 11.4741 17.2957 11.4971 17.2499 11.5202C17.2499 11.5663 17.227 11.5893 17.1812 11.6124C17.1583 11.6816 17.1354 11.7277 17.0667 11.7507C17.0667 11.7968 17.0438 11.8199 16.9979 11.8429C16.9979 11.889 16.975 11.9121 16.9292 11.9352C16.9063 12.0043 16.8834 12.0504 16.8147 12.0965C16.8147 12.1427 16.7918 12.1888 16.7459 12.1888C16.6543 12.3963 16.5398 12.5807 16.3794 12.7651C16.3794 12.8112 16.3565 12.8573 16.3107 12.8573C16.3107 12.9265 16.2878 12.9957 16.2191 13.0187C16.2191 13.0879 16.1962 13.1571 16.1274 13.1801C16.1274 13.2493 16.1045 13.3184 16.0358 13.3415C16.0358 13.4107 16.0129 13.4798 15.9442 13.5029C15.9442 13.572 15.9213 13.6182 15.8525 13.6643C15.8525 13.7334 15.8296 13.7795 15.7609 13.8256C15.7609 13.8948 15.738 13.964 15.6693 13.987C15.6693 14.0562 15.6464 14.1254 15.6005 14.1484C15.5776 14.3329 15.4631 14.4942 15.3944 14.7248C15.2111 14.5173 15.1424 14.3098 15.0736 14.0793C15.0049 14.0331 15.0049 13.987 14.982 13.9179C14.9133 13.8718 14.9133 13.8256 14.8904 13.7565C14.8217 13.7104 14.7987 13.6643 14.7987 13.5951C14.73 13.549 14.7071 13.5029 14.7071 13.4337C14.6842 13.4798 14.6613 13.4107 14.6613 13.3415C14.5926 13.2954 14.5697 13.2493 14.5697 13.1801C14.5238 13.1571 14.5009 13.134 14.5238 13.0879C14.4551 13.0418 14.4322 12.9957 14.4322 12.9265C14.2719 12.7651 14.1802 12.5576 14.0886 12.3501C14.0428 12.3271 14.0199 12.304 14.0199 12.2579C13.8595 12.0735 13.7221 11.889 13.6075 11.6585C13.5159 11.6124 13.4701 11.5202 13.4242 11.428C13.3784 11.4049 13.3555 11.3818 13.3555 11.3357C13.3097 11.3357 13.2868 11.2896 13.2868 11.2435C13.2181 11.2205 13.1952 11.1744 13.1723 11.1052C13.1264 11.0821 13.1035 11.0591 13.1035 11.013C13.0577 10.9899 13.0348 10.9669 13.0348 10.9207C12.8745 10.7824 12.7141 10.621 12.5996 10.4366C12.5537 10.4366 12.5308 10.3905 12.5079 10.3444C12.4621 10.3444 12.4392 10.2983 12.4163 10.2522C12.3705 10.2522 12.3476 10.2061 12.3247 10.1599C12.2788 10.1599 12.2559 10.1138 12.233 10.0677C12.1872 10.0677 12.1643 10.0216 12.1414 9.9755C12.0956 9.9755 12.0727 9.92939 12.0498 9.88329C12.0039 9.88329 11.981 9.83718 11.9581 9.79107C11.9123 9.79107 11.8894 9.74496 11.8665 9.69885C11.8207 9.69885 11.7978 9.65274 11.7749 9.60663C11.729 9.60663 11.7061 9.56052 11.6832 9.51441C11.3854 9.30692 11.2938 9.35303 11.5458 8.82277C11.6145 8.5 11.7061 8.17723 11.8665 7.90058C11.9123 7.69308 11.981 7.48559 12.1185 7.30115C12.1185 7.23199 12.1414 7.16282 12.1872 7.13977C12.1872 7.0706 12.2101 7.00144 12.2559 6.97839C12.2559 6.90922 12.2788 6.84006 12.3476 6.817C12.3476 6.74784 12.3705 6.67867 12.4392 6.65562C12.4392 6.58646 12.4621 6.51729 12.5308 6.49424C12.5308 6.42507 12.5537 6.35591 12.6225 6.33285C12.6683 6.17147 12.737 6.03314 12.8745 5.91787C12.9203 5.75648 13.0119 5.61816 13.1264 5.50288C13.1493 5.38761 13.1952 5.31844 13.2868 5.24928C13.3097 5.13401 13.3555 5.06484 13.4472 4.99568C13.4472 4.94957 13.4701 4.90346 13.5159 4.90346C13.5617 4.76513 13.6533 4.64986 13.7679 4.55764C13.7908 4.46542 13.8595 4.3732 13.9511 4.32709C13.9511 4.28098 13.974 4.25793 14.0199 4.23487C14.0199 4.18876 14.0428 4.16571 14.0886 4.14265C14.2031 3.95821 14.3406 3.79683 14.5238 3.6585C14.5238 3.61239 14.5468 3.58934 14.6155 3.56628C14.6155 3.52017 14.6384 3.49712 14.6842 3.47406C14.6842 3.42795 14.73 3.4049 14.7758 3.38184C14.7987 3.35879 14.7987 3.31268 14.8446 3.28963C15.2111 2.96686 15.0966 2.80548 15.5776 3.31268C15.6234 3.31268 15.6464 3.33573 15.6693 3.38184C15.7151 3.38184 15.738 3.4049 15.7609 3.47406C16.0816 3.70461 16.3565 3.98127 16.5856 4.30403C16.6314 4.32709 16.6543 4.35014 16.6772 4.39625C16.723 4.41931 16.7459 4.44236 16.7459 4.48847C16.7918 4.51153 16.8147 4.53458 16.8147 4.58069C16.975 4.69597 17.0896 4.83429 17.1583 4.99568C17.3645 5.18012 17.5248 5.41066 17.6623 5.66427C17.7081 5.68732 17.731 5.71037 17.731 5.75648C17.8226 5.82565 17.8685 5.89481 17.8914 6.01009C18.0975 6.26369 18.2808 6.54035 18.3953 6.84006C18.4641 6.88617 18.487 6.93228 18.487 7.00144C18.5557 7.04755 18.5786 7.09366 18.5786 7.16282C18.6473 7.20893 18.6473 7.25504 18.6702 7.32421C18.739 7.37032 18.739 7.41643 18.739 7.48559C18.8077 7.5317 18.8077 7.57781 18.8077 7.64697C18.9451 7.80836 19.0139 8.01585 19.0597 8.22334C19.1742 8.22334 19.1971 8.10807 19.2888 8.06196C19.2888 8.01585 19.3117 7.9928 19.3575 7.96974C19.3575 7.92363 19.3804 7.90058 19.4262 7.87752C19.5408 7.69308 19.6782 7.50865 19.8386 7.39337C19.8386 7.34726 19.8615 7.32421 19.9073 7.30115C19.9073 7.25504 19.9302 7.23199 19.976 7.20893C20.0906 7.0245 20.2509 6.86311 20.4113 6.72478C20.4113 6.70173 20.4113 6.67867 20.4113 6.65562C20.3655 6.60951 20.3196 6.5634 20.3425 6.49424C20.2738 6.44813 20.2509 6.40202 20.2509 6.33285C20.1822 6.28674 20.1593 6.24063 20.1593 6.17147C20.0906 6.12536 20.0676 6.07925 20.0676 6.01009C19.9989 5.96398 19.976 5.91787 19.976 5.8487C19.9073 5.82565 19.8844 5.75648 19.8844 5.68732C19.8386 5.66427 19.8157 5.64121 19.8157 5.5951C19.7927 5.5951 19.7927 5.57205 19.7927 5.54899C19.7469 5.52594 19.724 5.47983 19.724 5.43372C19.6553 5.41066 19.6324 5.3415 19.6324 5.27233C19.5866 5.24928 19.5637 5.22622 19.5637 5.18012C19.5179 5.13401 19.472 5.0879 19.472 5.01873C19.4033 4.99568 19.3804 4.92651 19.3804 4.85735C19.3346 4.83429 19.3117 4.81124 19.3117 4.76513C19.243 4.74207 19.22 4.67291 19.1971 4.60375C19.1513 4.58069 19.1284 4.55764 19.1284 4.51153C19.0826 4.48847 19.0597 4.46542 19.0597 4.41931C18.991 4.39625 18.9681 4.35014 18.9681 4.28098C19.0368 4.25792 19.0139 4.23487 19.0139 4.18876C18.9681 4.18876 18.9451 4.14265 18.9451 4.09654C18.8764 4.07349 18.8535 4.02738 18.8306 3.95821C18.7848 3.93516 18.7619 3.9121 18.7619 3.86599C18.7161 3.84294 18.6932 3.81988 18.6932 3.77378C18.6015 3.72767 18.5328 3.63545 18.5099 3.54323C18.4641 3.52017 18.4412 3.49712 18.4412 3.45101C18.3953 3.42795 18.3724 3.4049 18.3724 3.35879C18.3266 3.35879 18.3037 3.31268 18.3037 3.26657C18.2579 3.26657 18.235 3.24352 18.235 3.17435C18.1204 3.10519 18.0288 2.98991 17.9601 2.87464C17.9143 2.87464 17.8914 2.82853 17.8685 2.78242C17.8226 2.78242 17.7997 2.73631 17.7768 2.6902C17.731 2.6902 17.7081 2.64409 17.6852 2.59798C17.6394 2.59798 17.6165 2.55187 17.5936 2.50576C17.5477 2.50576 17.5248 2.45965 17.5019 2.41354C17.4561 2.41354 17.4332 2.36744 17.4103 2.32133C17.3645 2.32133 17.3416 2.27522 17.3187 2.22911C17.2728 2.22911 17.2499 2.183 17.227 2.13689C17.1812 2.13689 17.1583 2.09078 17.1354 2.04467C17.0208 1.9755 16.9063 1.88329 16.8376 1.76801C16.7918 1.76801 16.7689 1.74496 16.7459 1.69885C16.7001 1.69885 16.6772 1.67579 16.6543 1.62968C16.6085 1.62968 16.5856 1.60663 16.5627 1.56052C16.5169 1.56052 16.494 1.53746 16.4711 1.49135C16.4023 1.49135 16.3565 1.44524 16.3336 1.37608H16.3107C16.2649 1.37608 16.242 1.35303 16.2191 1.30692C16.1732 1.30692 16.1503 1.28386 16.1274 1.23775C16.0816 1.23775 16.0358 1.2147 16.0358 1.16859C15.9671 1.16859 15.9213 1.12248 15.8983 1.05331H15.8754C15.8296 1.05331 15.8067 1.03026 15.7838 0.98415C15.738 0.98415 15.6922 0.961095 15.6922 0.914986C15.6234 0.914986 15.5776 0.868876 15.5547 0.822767H15.5318C15.486 0.822767 15.4631 0.799712 15.4402 0.753602C15.3944 0.753602 15.3715 0.730548 15.3485 0.684438C15.2798 0.684438 15.234 0.638329 15.2111 0.569164C15.1653 0.569164 15.1424 0.54611 15.1195 0.5H15.0966H15.0736C15.0507 0.54611 15.0278 0.569164 14.982 0.569164C14.9362 0.661383 14.8675 0.730548 14.7529 0.753602C14.73 0.799712 14.7071 0.822767 14.6613 0.822767C14.6384 0.868876 14.6155 0.891931 14.5697 0.891931C14.5697 0.93804 14.5238 0.961095 14.478 0.961095C14.478 1.0072 14.4322 1.03026 14.3864 1.03026C14.4093 1.0072 14.4322 0.98415 14.478 0.961095C14.4551 0.98415 14.4093 1.0072 14.3864 1.03026C14.3864 1.07637 14.3635 1.09942 14.2948 1.09942C14.226 1.2147 14.1115 1.30692 13.997 1.37608C13.997 1.42219 13.9511 1.44524 13.9053 1.4683C13.9053 1.51441 13.8595 1.53746 13.8137 1.56052C13.8137 1.60663 13.7679 1.62968 13.7221 1.65274C13.7221 1.69885 13.6762 1.7219 13.6304 1.74496C13.6304 1.79107 13.5846 1.81412 13.5388 1.83718C13.5388 1.88329 13.493 1.90634 13.4472 1.92939C13.4472 1.9755 13.4013 1.99856 13.3555 2.02161C13.2868 2.13689 13.1952 2.25216 13.0806 2.32133V2.34438C13.0806 2.39049 13.0577 2.41354 13.0119 2.41354C13.0119 2.45965 12.989 2.48271 12.9432 2.50576C12.9432 2.55187 12.9203 2.57493 12.8745 2.59798C12.8745 2.64409 12.8515 2.66715 12.8057 2.6902C12.8057 2.73631 12.7828 2.75937 12.737 2.78242C12.6912 2.87464 12.6454 2.96686 12.5537 3.01297C12.5537 3.05908 12.5308 3.08213 12.485 3.10519C12.485 3.1513 12.4621 3.17435 12.4163 3.19741C12.3934 3.28963 12.3247 3.38184 12.233 3.42795C12.233 3.47406 12.2101 3.49712 12.1643 3.52017C12.1643 3.56628 12.1414 3.58934 12.0956 3.61239C12.0727 3.68156 12.0498 3.72767 11.981 3.75072C11.981 3.79683 11.9581 3.81988 11.9123 3.84294C11.9123 3.9121 11.8665 3.95821 11.8207 3.98127C11.8207 4.02738 11.7978 4.05043 11.7519 4.07349C11.7519 4.14265 11.7061 4.18876 11.6603 4.21182C11.6603 4.25793 11.6374 4.28098 11.5916 4.30403C11.5916 4.3732 11.5458 4.41931 11.5 4.46542C11.5 4.51153 11.477 4.53458 11.4312 4.55764C11.4312 4.6268 11.4083 4.67291 11.3396 4.71902C11.3396 4.78818 11.3167 4.83429 11.248 4.8804C11.248 4.92651 11.2251 4.97262 11.1792 4.97262C11.1792 5.04179 11.1563 5.11095 11.0876 5.13401C11.0876 5.20317 11.0647 5.24928 10.996 5.29539C10.996 5.3415 10.9731 5.38761 10.9272 5.41066V5.43372L10.9043 5.45677C10.9043 5.50288 10.8814 5.54899 10.8585 5.54899C10.8585 5.61816 10.8356 5.66427 10.7669 5.71037C10.7669 5.77954 10.744 5.8487 10.6753 5.87176C10.6753 5.94092 10.6523 6.01009 10.5836 6.03314C10.5836 6.10231 10.5607 6.17147 10.492 6.19452C10.492 6.26369 10.4691 6.33285 10.4004 6.37896V6.40202L10.3774 6.42507C10.3774 6.49424 10.3545 6.5634 10.3087 6.58646C10.3087 6.65562 10.3087 6.72478 10.24 6.77089C10.24 6.84006 10.2171 6.90922 10.1484 6.95533C10.1713 6.97839 10.1484 7.00144 10.1255 7.00144C10.1255 7.07061 10.1025 7.13977 10.0567 7.16282C10.0567 7.23199 10.0567 7.32421 9.98801 7.37032V7.39337L9.9651 7.41643C9.9651 7.48559 9.9651 7.55475 9.89637 7.60086C9.89637 7.69308 9.89637 7.7853 9.80474 7.85447C9.73602 8.01585 9.6902 7.92363 9.62148 7.85447C9.55275 7.85447 9.50693 7.80836 9.46112 7.76225H9.43821C9.39239 7.76225 9.36948 7.73919 9.34658 7.69308C9.27785 7.69308 9.23203 7.67003 9.18622 7.60086C9.1404 7.60086 9.09458 7.57781 9.07168 7.5317H9.04877L9.02586 7.50865C8.98004 7.50865 8.95714 7.48559 8.93423 7.43948C8.8655 7.43948 8.79678 7.41643 8.77387 7.34726C8.70514 7.34726 8.65933 7.32421 8.61351 7.25504C8.56769 7.25504 8.52188 7.23199 8.49897 7.18588H8.47606L8.45315 7.16282C8.40734 7.16282 8.36152 7.13977 8.33861 7.09366H8.3157L8.33861 7.18588C8.2928 7.18588 8.24698 7.16282 8.22407 7.11671H8.20116L8.17825 7.09366C8.13244 7.09366 8.08662 7.07061 8.06371 7.0245H8.0408L8.0179 7.00144C7.97208 7.00144 7.92626 6.97839 7.90335 6.93228H7.88045L7.83463 6.95533C7.78881 6.95533 7.743 6.93228 7.72009 6.88617H7.69718L7.67427 6.86311C7.60555 6.86311 7.55973 6.84006 7.51391 6.79395C7.44519 6.79395 7.37646 6.79395 7.35356 6.72478C7.28483 6.72478 7.21611 6.72478 7.17029 6.65562C7.14738 6.67867 7.12447 6.65562 7.12447 6.63257C7.05575 6.63257 6.98702 6.63256 6.96412 6.5634C6.89539 6.5634 6.82667 6.5634 6.78085 6.49424C6.75794 6.51729 6.73503 6.49424 6.73503 6.47118C6.66631 6.47118 6.59758 6.47118 6.57468 6.40202C6.48304 6.40202 6.39141 6.40202 6.32268 6.3098C6.23105 6.3098 6.13942 6.3098 6.07069 6.21758C5.97906 6.21758 5.88743 6.21758 5.8187 6.14842C5.79579 6.14842 5.77289 6.12536 5.74998 6.12536C5.68125 6.12536 5.61253 6.12536 5.56671 6.0562C5.5438 6.07925 5.52089 6.0562 5.49799 6.03314C5.40635 6.03314 5.31472 6.03314 5.246 5.96398C5.22309 5.96398 5.20018 5.96398 5.15436 5.94092C5.08564 5.94092 5.01691 5.94092 4.94819 5.87176H4.92528L4.90237 5.8487C4.78783 5.8487 4.67329 5.8487 4.55875 5.77954C4.53584 5.77954 4.51293 5.77954 4.49002 5.75648C4.39839 5.75648 4.28385 5.77954 4.21512 5.68732C4.16931 5.68732 4.12349 5.66427 4.07767 5.66427C3.96313 5.68732 3.84859 5.66427 3.73405 5.5951C3.71114 5.61816 3.68823 5.61816 3.66532 5.5951C3.50497 5.5951 3.36752 5.61816 3.23007 5.52594L3.20716 5.54899L3.18425 5.52594C3.13843 5.52594 3.06971 5.52594 3.02389 5.50288C2.84063 5.50288 2.65736 5.52594 2.497 5.43372C2.38246 5.45677 2.29083 5.43372 2.19919 5.41066C1.85557 5.41066 1.48904 5.41066 1.14541 5.38761C0.916331 5.36455 0.755973 5.43372 0.710157 5.66427C0.710157 5.77954 0.710157 5.87176 0.641432 5.96398C0.641432 5.98703 0.618523 5.98703 0.618523 6.01009C0.618523 6.1023 0.618523 6.21758 0.572707 6.3098C0.572707 6.33285 0.549799 6.33285 0.549799 6.35591C0.549799 6.47118 0.549799 6.58645 0.481074 6.70173C0.481074 6.84006 0.481074 6.95533 0.412349 7.07061C0.412349 7.09366 0.389441 7.11671 0.389441 7.11671C0.389441 7.2781 0.389441 7.41643 0.320716 7.55476L0.343624 7.57781L0.320716 7.60086C0.320716 7.7853 0.343624 7.94669 0.251991 8.10807C0.274899 8.15418 0.251991 8.22334 0.229083 8.26945C0.229083 8.5 0.229083 8.73055 0.160358 8.96109L0.0229083 9.03026L0 9.05331C0 9.79107 0 10.5058 0 11.2435L0.0229083 11.2666H0C0.0916331 11.4971 0.0687248 11.7507 0.0687248 11.9813C0.0916331 12.0043 0.0916331 12.0274 0.0687248 12.0504C0.0916331 12.0735 0.0916331 12.0965 0.0916331 12.1196C0.13745 12.2579 0.13745 12.4193 0.13745 12.5807C0.160358 12.6037 0.160358 12.6268 0.13745 12.6268C0.206174 12.7421 0.206174 12.8573 0.206174 12.9957C0.206174 13.0187 0.206174 13.0418 0.229083 13.0648C0.297808 13.1571 0.320716 13.2954 0.297808 13.4107C0.320716 13.4337 0.320716 13.4568 0.320716 13.4798C0.412349 13.572 0.412349 13.7104 0.412349 13.8256C0.481074 13.8948 0.481074 13.987 0.481074 14.0793C0.503982 14.1023 0.503982 14.1023 0.503982 14.1484C0.572707 14.2176 0.572707 14.3329 0.572707 14.4251C0.641432 14.4942 0.66434 14.5865 0.641432 14.6787C0.710157 14.7478 0.733065 14.8401 0.733065 14.9323C0.80179 15.0014 0.824698 15.0937 0.824698 15.1859C0.916331 15.232 0.916331 15.3242 0.916331 15.4164C0.985056 15.4625 0.985056 15.5317 0.985056 15.6009C1.05378 15.67 1.07669 15.7392 1.07669 15.8314C1.14541 15.8775 1.14541 15.9467 1.14541 16.0159C1.21414 16.062 1.21414 16.1081 1.21414 16.1772C1.28286 16.2233 1.30577 16.2695 1.28286 16.3386C1.35159 16.4078 1.3745 16.4769 1.3974 16.5692C1.46613 16.6153 1.46613 16.6614 1.48904 16.7305C1.53485 16.7536 1.55776 16.7767 1.53485 16.8228L1.60358 16.8689V16.8919C1.6494 16.915 1.6723 16.9611 1.6723 17.0072C1.74103 17.0533 1.76394 17.0994 1.76394 17.1686C1.80975 17.2147 1.83266 17.2839 1.83266 17.353C1.90139 17.3761 1.92429 17.4452 1.92429 17.5144C1.97011 17.5375 1.99302 17.5605 1.99302 17.6066C2.06174 17.6297 2.08465 17.6988 2.08465 17.768C2.15338 17.7911 2.17629 17.8602 2.17629 17.9294C2.2221 17.9524 2.24501 17.9755 2.24501 18.0216C2.31374 18.0447 2.33664 18.1138 2.33664 18.183C2.38246 18.2061 2.40537 18.2291 2.40537 18.2752C2.47409 18.2983 2.497 18.3674 2.51991 18.4366C2.56573 18.4597 2.58864 18.4827 2.58864 18.5288C2.68027 18.5749 2.72608 18.6671 2.7719 18.7824C2.81772 18.8055 2.84063 18.8285 2.84063 18.8746C2.93226 18.9207 3.00098 19.013 3.02389 19.1052C3.06971 19.1282 3.09262 19.1513 3.09262 19.1974C3.13843 19.1974 3.16134 19.2435 3.16134 19.2896C3.13843 19.2666 3.11553 19.2205 3.09262 19.1974C3.11553 19.2435 3.13843 19.2666 3.16134 19.2896C3.27588 19.3818 3.36752 19.4741 3.43624 19.6124C3.48206 19.6354 3.50497 19.6585 3.50497 19.7046C3.55078 19.7046 3.57369 19.7507 3.57369 19.7968C3.61951 19.7968 3.64242 19.8429 3.64242 19.889C3.61951 19.866 3.5966 19.8429 3.57369 19.7968C3.5966 19.8429 3.61951 19.866 3.64242 19.889C3.68823 19.889 3.71114 19.9352 3.73405 19.9813C3.77987 19.9813 3.80277 20.0043 3.80277 20.0735C4.00895 20.2579 4.21512 20.4424 4.37548 20.6499C4.4213 20.6499 4.44421 20.6729 4.46711 20.719C4.49002 20.7421 4.51293 20.7651 4.55875 20.7882C4.53584 20.7651 4.51293 20.7421 4.46711 20.719C4.51293 20.719 4.53584 20.7421 4.55875 20.7882C4.60456 20.7882 4.62747 20.8112 4.65038 20.8804C4.6962 20.8804 4.7191 20.9035 4.74201 20.9496C4.78783 20.9496 4.83365 20.9726 4.83365 21.0187C4.9711 21.0879 5.06273 21.1571 5.15436 21.2954C5.20018 21.2954 5.22309 21.3184 5.246 21.3646C5.29181 21.3646 5.31472 21.3876 5.33763 21.4337C5.42926 21.4568 5.52089 21.5259 5.56671 21.6182C5.61253 21.6182 5.65834 21.6412 5.65834 21.6873C5.74998 21.7104 5.84161 21.7795 5.91033 21.8718C6.02488 21.8948 6.0936 21.9409 6.16233 22.0331C6.20814 22.0331 6.25396 22.0562 6.25396 22.1023C6.32268 22.1023 6.3685 22.1254 6.41432 22.1945C6.46013 22.1945 6.50595 22.2176 6.50595 22.2637C6.57467 22.2637 6.62049 22.2867 6.66631 22.3559C6.78085 22.379 6.84957 22.4251 6.9183 22.5173C6.98702 22.5173 7.05575 22.5403 7.07866 22.6095C7.14738 22.6095 7.21611 22.6326 7.23902 22.7017C7.39937 22.7478 7.53682 22.817 7.67427 22.9323C7.743 22.9323 7.81172 22.9553 7.83463 23.0245C7.90335 23.0245 7.97208 23.0476 7.99499 23.1167V23.1398V23.1167C8.08662 23.1167 8.17825 23.1398 8.22407 23.232C8.2928 23.232 8.36152 23.255 8.38443 23.3012C8.45315 23.3012 8.52188 23.3012 8.54479 23.3703C8.63642 23.3703 8.72805 23.3934 8.79678 23.4625C8.8655 23.4625 8.93423 23.4625 8.98004 23.5317C9.07168 23.5317 9.16331 23.5548 9.23203 23.6239C9.32367 23.6239 9.4153 23.647 9.48403 23.7161C9.55275 23.7161 9.62148 23.7161 9.66729 23.7853C9.75893 23.7853 9.87347 23.8084 9.94219 23.8545C9.9651 23.8545 9.9651 23.8775 9.98801 23.8775C10.0796 23.8775 10.1713 23.8775 10.24 23.9467C10.3545 23.9467 10.4691 23.9467 10.5607 24.0389C10.6753 24.0389 10.7898 24.0389 10.9043 24.1311C11.0189 24.1311 11.1334 24.1081 11.248 24.2003C11.2709 24.1772 11.2938 24.1772 11.3167 24.2233C11.4541 24.2233 11.6145 24.2233 11.729 24.2925C11.8894 24.2925 12.0727 24.2925 12.233 24.3386C12.2559 24.3386 12.2788 24.3617 12.3247 24.3617C12.5996 24.3617 12.8974 24.3617 13.1723 24.4308C13.974 24.4308 14.7529 24.4308 15.5547 24.4308C16.494 24.4539 17.4103 24.4078 18.3495 24.3386L18.3724 24.3156L18.3953 24.3386C18.5557 24.2464 18.739 24.2695 18.9222 24.2695L18.9451 24.2464L18.9681 24.2695C19.1055 24.1772 19.2659 24.1772 19.4262 24.1772C19.5408 24.085 19.7011 24.085 19.8386 24.085C19.9302 23.9928 20.0447 23.9928 20.1822 23.9928C20.2509 23.9006 20.3425 23.9236 20.4342 23.9236C20.4571 23.9006 20.4571 23.9006 20.48 23.9006C20.5716 23.8314 20.6633 23.8314 20.7549 23.8314C20.8236 23.7392 20.9153 23.7622 21.0069 23.7392C21.0756 23.647 21.1672 23.647 21.2589 23.647C21.3276 23.5548 21.4192 23.5548 21.5109 23.5548C21.5567 23.4856 21.6254 23.4856 21.6941 23.4856C21.7629 23.4164 21.8316 23.3934 21.9232 23.3934C21.969 23.3242 22.0149 23.3242 22.0836 23.3242C22.1981 23.232 22.3356 23.1628 22.4959 23.1398C22.5417 23.0706 22.5876 23.0706 22.6563 23.0706C22.7021 23.0014 22.7479 23.0014 22.8166 22.9784C22.8625 22.9092 22.9083 22.8862 22.977 22.8862C22.9999 22.817 23.0686 22.7939 23.1374 22.7939C23.1603 22.7248 23.229 22.7017 23.2977 22.7017C23.3664 22.6095 23.4581 22.5634 23.5497 22.5634C23.5726 22.4942 23.6413 22.4712 23.7101 22.4712C23.733 22.402 23.8017 22.379 23.8704 22.379C23.8933 22.3329 23.9162 22.3098 23.9621 22.3098C23.985 22.2406 24.0537 22.2176 24.1224 22.2176C24.1911 22.1254 24.2599 22.0793 24.3744 22.0562C24.4431 21.964 24.5119 21.9179 24.6264 21.8948C24.6722 21.8026 24.7638 21.7565 24.8784 21.7104C24.9013 21.6643 24.9242 21.6412 24.97 21.6412C25.0158 21.549 25.1075 21.4798 25.1991 21.4568C25.222 21.4107 25.2449 21.3876 25.2907 21.3876C25.3824 21.2723 25.474 21.1801 25.6115 21.134C25.6344 21.0879 25.6573 21.0648 25.7031 21.0648C25.7031 21.0187 25.7489 20.9957 25.7947 20.9957C25.7947 20.9496 25.8405 20.9265 25.8864 20.9265C26.0238 20.7651 26.1842 20.6037 26.3674 20.4885C26.3674 20.4424 26.4132 20.4193 26.4591 20.3963C26.4591 20.3501 26.5049 20.3271 26.5507 20.304C26.5507 20.2579 26.5965 20.2349 26.6423 20.2118C26.6423 20.1657 26.6881 20.1427 26.734 20.1196C26.734 20.0735 26.7798 20.0504 26.8256 20.0274C26.9401 19.8429 27.1005 19.6816 27.2608 19.5432C27.2608 19.4971 27.2838 19.4741 27.3296 19.451C27.3296 19.4049 27.3525 19.3818 27.3983 19.3588C27.3983 19.3127 27.4212 19.2896 27.467 19.2666C27.5128 19.1744 27.5587 19.0821 27.6503 19.036C27.6503 18.9899 27.6732 18.9669 27.719 18.9438C27.719 18.8977 27.7419 18.8746 27.7877 18.8516C27.8106 18.7824 27.8336 18.7363 27.9023 18.7133C27.9023 18.6671 27.9252 18.6441 27.971 18.621C27.9939 18.5288 28.0626 18.4366 28.1543 18.3674C28.1543 18.3213 28.1772 18.2983 28.223 18.2752C28.223 18.2061 28.2688 18.1599 28.3146 18.1138C28.3146 18.0677 28.3375 18.0447 28.3834 18.0216C28.3834 17.9524 28.4063 17.9063 28.475 17.8602C28.475 17.8141 28.4979 17.768 28.5437 17.768C28.5437 17.6988 28.5666 17.6527 28.6353 17.6066C28.6353 17.5375 28.6583 17.4914 28.727 17.4452C28.727 17.3991 28.7499 17.353 28.7957 17.353C28.7957 17.2839 28.8186 17.2147 28.8873 17.1916C28.8873 17.1225 28.9102 17.0533 28.979 17.0303C28.979 16.9611 29.0019 16.8919 29.0706 16.8689C29.0706 16.7997 29.0935 16.7305 29.1622 16.7075C29.1622 16.6383 29.1851 16.5692 29.2539 16.5461C29.2539 16.4769 29.2768 16.4078 29.3455 16.3847C29.3455 16.3156 29.3684 16.2464 29.4142 16.2233C29.4142 16.1542 29.4371 16.085 29.4829 16.062C29.4829 15.9928 29.5059 15.9236 29.5746 15.8775C29.5517 15.8545 29.5746 15.8314 29.5975 15.8314C29.5975 15.7622 29.6204 15.6931 29.6662 15.67C29.6662 15.6009 29.6662 15.5317 29.7349 15.4856C29.7349 15.3934 29.7578 15.3012 29.8266 15.232C29.8266 15.1398 29.8495 15.0476 29.9182 14.9784C29.9182 14.8862 29.9182 14.817 29.9869 14.7478L30.0098 14.7248C30.0098 14.6326 30.0098 14.5403 30.1015 14.4712C30.1015 14.379 30.1015 14.2867 30.1702 14.2176C30.1702 14.1254 30.1931 14.0101 30.2389 13.9179C30.2389 13.8948 30.2618 13.8948 30.2618 13.8718C30.2618 13.7565 30.2618 13.6643 30.3306 13.572V13.549L30.3535 13.5259C30.3535 13.4107 30.3535 13.2723 30.4222 13.1571C30.3993 13.134 30.3993 13.111 30.4222 13.0879C30.4222 12.9726 30.4222 12.8343 30.4909 12.719C30.468 12.696 30.468 12.6729 30.4909 12.6499C30.4909 12.4885 30.4909 12.3501 30.5596 12.1888C30.5367 12.1427 30.5596 12.0965 30.5825 12.0504C30.6055 11.9582 30.6055 11.7738 30.6971 11.6124ZM14.3406 21.111C14.3406 21.1571 14.3406 21.2032 14.2948 21.2262C14.1802 21.2262 14.1115 21.111 14.0428 21.0418C12.4392 19.3127 11.477 17.2839 11.0876 14.9553C10.9731 14.2867 10.9272 13.5951 10.9272 12.9035C10.9272 12.7882 10.9502 12.6499 10.8356 12.5576C10.4004 12.1657 9.98801 11.7968 9.43821 11.6124C9.16331 11.5202 9.11749 11.5663 9.09459 11.8199C8.84259 15.6009 9.82765 18.9899 12.2559 21.8948C12.4163 22.0793 12.5537 22.2406 12.7599 22.4712C12.2559 22.4712 11.8436 22.379 11.4083 22.2637C6.66631 21.1571 3.06971 17.4683 2.10756 12.6729C1.76394 10.9899 1.80975 9.30692 2.10756 7.62392C2.13047 7.46254 2.17629 7.34726 2.40537 7.37032C7.10157 7.99279 10.7669 10.2291 13.0806 14.4712C14.2031 16.5231 14.5926 18.7824 14.3406 21.111ZM19.9073 11.428C20.2051 15.3012 19.1055 18.598 16.494 21.4107C15.6464 18.7133 17.479 13.2954 19.9073 11.428ZM21.7629 21.4337C20.6633 21.964 19.4949 22.2867 18.3037 22.4712C18.2579 22.4712 18.2121 22.4712 18.1663 22.4712C18.1892 22.3098 18.3266 22.2406 18.3953 22.1254C20.3425 19.8429 21.4651 17.1916 21.7629 14.1945C21.9003 12.8804 21.8545 11.5663 21.6025 10.2752C21.5567 10.0447 21.6254 9.90634 21.8087 9.76801C23.6642 8.52306 25.7031 7.73919 27.9023 7.46254C27.9252 7.46254 27.9481 7.46254 27.9939 7.46254C28.5437 7.39337 28.5437 7.39337 28.6353 7.92363C29.6891 13.987 26.5278 19.1744 21.7629 21.4337Z" fill="white"/>
<path d="M17.9375 10.644C17.9604 10.6209 17.9833 10.5979 18.0062 10.5518C17.9833 10.5979 17.9604 10.6209 17.9375 10.644Z" fill="#00BD00"/>
<path d="M17.1797 11.5663C17.2026 11.5433 17.2255 11.4972 17.2484 11.4741C17.2255 11.5202 17.2026 11.5433 17.1797 11.5663Z" fill="#00BD00"/>
<path d="M12.1406 3.54325C12.1635 3.54325 12.1635 3.5202 12.1864 3.5202C12.2093 3.49714 12.2323 3.45103 12.2552 3.42798C12.2323 3.45103 12.1864 3.47409 12.1864 3.5202C12.1635 3.5202 12.1635 3.54325 12.1406 3.54325Z" fill="#00BD00"/>
<path d="M26.6641 20.2809C26.7099 20.2809 26.7328 20.2579 26.7557 20.1887C26.7557 20.2348 26.7099 20.2809 26.6641 20.2809Z" fill="#00BD00"/>
<path d="M26.826 20.0964C26.826 20.1425 26.8031 20.1656 26.7344 20.1887C26.8031 20.1887 26.826 20.1656 26.826 20.0964Z" fill="#00BD00"/>
<path d="M27.4677 19.428C27.4448 19.451 27.4448 19.451 27.4219 19.451C27.4448 19.428 27.4677 19.428 27.4677 19.428Z" fill="#00BD00"/>
<path d="M27.5112 19.3589C27.5112 19.3819 27.5112 19.405 27.4883 19.405C27.4883 19.405 27.5112 19.3819 27.5112 19.3589Z" fill="#00BD00"/>
<path d="M26.5938 20.35C26.6396 20.35 26.6625 20.327 26.6854 20.2578C26.6625 20.327 26.6396 20.35 26.5938 20.35Z" fill="#00BD00"/>
<path d="M26.5039 20.4425C26.5497 20.4425 26.5726 20.4194 26.5955 20.3733C26.5726 20.4194 26.5497 20.4425 26.5039 20.4425Z" fill="#00BD00"/>
<path d="M27.8354 18.9438C27.8354 18.9669 27.8354 18.99 27.8125 18.99C27.8354 18.9669 27.8354 18.9438 27.8354 18.9438Z" fill="#00BD00"/>
<path d="M27.35 19.5432C27.3271 19.5663 27.3042 19.6124 27.2812 19.6354C27.3042 19.5893 27.3271 19.5663 27.35 19.5432Z" fill="#00BD00"/>
<path d="M28.0179 18.6902C27.995 18.7132 27.9721 18.7593 27.9492 18.7824C27.9721 18.7593 27.995 18.7363 28.0179 18.6902Z" fill="#00BD00"/>
<path d="M27.8114 19.0129C27.8114 19.0129 27.7885 19.036 27.7656 19.036C27.7885 19.0129 27.7885 19.0129 27.8114 19.0129Z" fill="#00BD00"/>
</g>
<defs>
<clipPath id="clip0_1639_2867">
<rect width="30.72" height="24" fill="white" transform="translate(0 0.5)"/>
</clipPath>
</defs>
</svg>
